<svg width="348" height="349" viewBox="0 0 348 349" fill="none" xmlns="http://www.w3.org/2000/svg">
<g filter="url(#filter0_d)">
<path d="M169.711 319.005C251.785 319.005 318.32 252.508 318.32 170.479C318.32 88.4505 251.785 21.9531 169.711 21.9531C87.6362 21.9531 21.1016 88.4505 21.1016 170.479C21.1016 252.508 87.6362 319.005 169.711 319.005Z" fill="#1D1E1D"/>
<path d="M327.429 153.975C319.169 74.2052 251.715 12 169.711 12C87.7066 12 20.2603 74.2052 12 153.975H327.429Z" fill="#C5312A"/>
<path d="M12 186.98C20.2603 266.75 87.7142 328.955 169.711 328.955C251.707 328.955 319.169 266.75 327.421 186.98H12V186.98Z" fill="#E7E7E9"/>
<path d="M169.709 220.414C197.303 220.414 219.673 198.057 219.673 170.478C219.673 142.9 197.303 120.543 169.709 120.543C142.115 120.543 119.746 142.9 119.746 170.478C119.746 198.057 142.115 220.414 169.709 220.414Z" fill="#1D1E1D"/>
<path d="M205.998 184.908C213.969 164.887 204.19 142.199 184.158 134.233C164.126 126.267 141.425 136.04 133.455 156.061C125.485 176.082 135.263 198.77 155.295 206.736C175.328 214.702 198.028 204.929 205.998 184.908Z" fill="#F7F7F7"/>
<path d="M169.713 196.799C184.257 196.799 196.048 185.016 196.048 170.48C196.048 155.944 184.257 144.16 169.713 144.16C155.169 144.16 143.379 155.944 143.379 170.48C143.379 185.016 155.169 196.799 169.713 196.799Z" fill="#B8B5B5"/>
<path d="M169.715 194.859C183.187 194.859 194.109 183.943 194.109 170.478C194.109 157.013 183.187 146.098 169.715 146.098C156.242 146.098 145.32 157.013 145.32 170.478C145.32 183.943 156.242 194.859 169.715 194.859Z" fill="#F7F7F7"/>
</g>
<defs>
<filter id="filter0_d" x="0" y="0" width="347.429" height="348.956" filterUnits="userSpaceOnUse" color-interpolation-filters="sRGB">
<feFlood flood-opacity="0" result="BackgroundImageFix"/>
<feColorMatrix in="SourceAlpha" type="matrix" values="0 0 0 0 0 0 0 0 0 0 0 0 0 0 0 0 0 0 127 0"/>
<feOffset dx="4" dy="4"/>
<feGaussianBlur stdDeviation="8"/>
<feColorMatrix type="matrix" values="0 0 0 0 0.00392157 0 0 0 0 0.109804 0 0 0 0 0.25098 0 0 0 0.2 0"/>
<feBlend mode="normal" in2="BackgroundImageFix" result="effect1_dropShadow"/>
<feBlend mode="normal" in="SourceGraphic" in2="effect1_dropShadow" result="shape"/>
</filter>
</defs>
</svg>
